<?xml version="1.0" encoding="UTF-8"?>
<!DOCTYPE svg PUBLIC "-//W3C//DTD SVG 1.1//EN" "http://www.w3.org/Graphics/SVG/1.1/DTD/svg11.dtd">
<!-- Creator: CorelDRAW (OEM Version) -->
<svg xmlns="http://www.w3.org/2000/svg" xml:space="preserve" width="145.182mm" height="53.3906mm" version="1.1" style="shape-rendering:geometricPrecision; text-rendering:geometricPrecision; image-rendering:optimizeQuality; fill-rule:evenodd; clip-rule:evenodd"
viewBox="0 0 9894.38 3638.65"
 xmlns:xlink="http://www.w3.org/1999/xlink"
 xmlns:xodm="http://www.corel.com/coreldraw/odm/2003">
 <defs>
  <style type="text/css">
   <![CDATA[
    .fil1 {fill:#265966}
    .fil0 {fill:#F4BF3F}
   ]]>
  </style>
 </defs>
 <g id="Layer_x0020_1">
  <metadata id="CorelCorpID_0Corel-Layer"/>
  <g id="_2231278289328">
   <g>
    <path class="fil0" d="M1832.76 1005.12c-292.19,51.18 -489.11,158.71 -640.61,320.35 -133.88,142.83 -286.24,370.24 -304.31,651.73 -24.48,381.31 13.63,138.13 612.8,344.38 246.65,84.9 436.92,184.16 704.45,254.01 152.22,39.75 687.87,109.82 796.98,-63.37 128.68,-204.25 100.06,-578.12 17.66,-798.16 -180.17,-481.16 -684.16,-797.03 -1186.98,-708.95z"/>
    <path class="fil0" d="M0.07 2484.96c66.94,44.88 138.93,22.22 228.63,21.39 82.49,-0.75 162.01,7.43 242.37,14.35 398.59,34.35 744.1,328.86 1051.03,483.58 936.62,472.1 1715.73,-153.9 1678.54,-270.9 -19.61,-61.73 -153.75,-17.81 -206.01,-10.21 -502.48,73.13 -844.48,3.2 -1311.32,-169.51 -380.15,-140.64 -388,-160.97 -819.98,-205.15 -160.61,-16.42 -323.17,-19.86 -487.06,-5.62 -157.35,13.67 -380.6,13.74 -376.21,142.07z"/>
    <path class="fil0" d="M1926 142.84c0.05,154.24 -7.31,363.98 3.12,506.34 11.05,150.96 155.09,197.38 148.88,-56.22 -3.61,-147.81 -10.45,-290.23 -7.48,-438.83 1.36,-68.38 7.24,-148.12 -65.29,-153.78 -80.62,-6.3 -79.26,75.43 -79.23,142.49z"/>
    <path class="fil0" d="M401.98 725.63c17.34,79.67 74.58,105.05 120.85,150.53l281.34 272.12c58.64,60.19 94.61,100.82 172.83,32.89 7.26,-93.09 -64.93,-122.65 -108.33,-166.56 -40.17,-40.65 -97.89,-102.95 -143.3,-144.99 -52.39,-48.54 -184.72,-192.8 -232.46,-200.15 -63.37,-9.75 -62.56,19.63 -90.93,56.16z"/>
    <path class="fil0" d="M2905.68 213.57c-120.42,-23.63 -125.48,69.36 -246.07,282.9 -31.49,55.78 -60.56,110.75 -92.7,173.3 -26.47,51.54 -85.24,135.62 -19.36,178.07 94.13,60.61 154.32,-118.84 235.59,-274.36 109.22,-209.03 178.86,-259.68 122.54,-359.89z"/>
    <path class="fil0" d="M3474.32 687.15c-48.97,26.18 -381.57,349.02 -426.71,405.31 -62.73,78.2 4.18,162.31 76.89,123.41 38.76,-20.73 352.03,-341.19 418.03,-413.91 70.66,-77.86 -7.65,-147.18 -68.21,-114.81z"/>
    <path class="fil0" d="M1103.64 212.3c-45.28,78.13 -28.65,91.12 21.73,176.12l189.9 341.14c26.84,48.24 71.59,138.61 127.74,118.77 119.27,-42.1 -63.75,-296.38 -93.22,-349.17 -29.73,-53.25 -62.63,-114.86 -93.61,-171.89 -39.06,-71.91 -50.88,-128.68 -152.54,-114.97z"/>
    <path class="fil0" d="M58.49 1491.47c74.88,61.83 394.19,169.33 522.33,215.45 70.99,25.56 170.19,20.01 127.74,-80.54 -20.85,-49.4 -277.44,-131.37 -341.87,-155.82 -101.03,-38.36 -296.99,-159.35 -308.19,20.91z"/>
   </g>
   <g>
    <path class="fil1" d="M4947.48 1643.49c-59.89,-12.94 -392.32,-18.66 -436.25,11.12 0.72,92.45 79.41,20.75 106.21,133.32 15.44,64.89 14.48,180.91 2.55,240.51 -30.61,77.45 -313.31,129.79 -470.9,-58.99 -109.68,-131.38 -155.9,-340.21 -109.07,-554.51 89.55,-409.66 552.94,-404.64 682.05,-99.91 8.57,20.23 12.04,37.88 21.63,59.39 21.58,48.39 4.81,37.77 54.97,34.62 30.59,-38 26.74,-310.32 7.28,-361.42 -69.45,-4.09 -30.03,16.86 -79.56,24.68 -27.25,4.31 -61.1,-17 -93.16,-26.1 -221.89,-63.01 -428.75,-57.41 -612.35,72.59 -453.51,321.13 -238.42,1134.39 466.67,1069.58 98.86,-9.09 343.62,-52.11 361.46,-141.2 9.7,-48.5 -2.96,-190.12 0.85,-252.83 8.68,-143.12 89.28,-47.84 97.63,-150.86z"/>
    <path class="fil1" d="M5500.04 1054.53c30.55,95.82 100.62,-16.55 100.1,219.04 -0.23,107.76 0.76,215.62 0.07,323.35 -0.71,107.68 -0.37,215.51 -0.08,323.2 0.11,41.27 8.59,109.08 -12.57,142.27 -41.82,65.62 -70.18,-1.61 -79.07,95.15 56.09,7.88 342.68,16.64 383.79,-6.69 -4.84,-68.04 -37.88,-30.1 -79.14,-79.9 -29.58,-35.71 -18.54,-94.05 -18.24,-139.27 1.17,-182.46 12.64,-877.33 -8.48,-965.64 -55.75,-8.86 -259.41,41.65 -286.39,88.49z"/>
    <path class="fil1" d="M5932.41 1501.98l89.92 13.44 -0.49 300.77c0.31,149.82 -24.85,319.97 123.16,361.5 128.27,36.01 352.06,-55.88 307.1,-155.84l-13.33 -1.1c-107.83,17.15 -219.95,115.73 -220.36,-181.49l-0.64 -323.39c199.29,-16.15 220.72,29.65 200.8,-96.52 -57.45,-22.03 -130.88,-4.93 -193.44,-14.8 -24.75,-106.88 43.44,-304.24 -106.29,-114.64 -95.03,120.36 -183.7,161.59 -186.44,212.07z"/>
    <path class="fil1" d="M5022.97 1469.98c22.98,64.53 80.91,27.04 95.56,116.98l1.42 436.78c-4.29,32.47 -14.03,46.49 -39.58,61.68 -62.29,36.99 -55.18,-5.26 -57.57,72.58l402.34 2.32c-14.18,-94.24 -81.36,-36.76 -102.88,-127.93 -18.52,-78.52 15.01,-509.24 -9.61,-649.81 -63.63,-12.99 -263.75,41.94 -289.67,87.41z"/>
    <path class="fil1" d="M5190.81 1025.47c-155.11,25.58 -128.27,266.69 44.43,236.58 134.37,-23.42 129.02,-265.19 -44.43,-236.58z"/>
   </g>
   <path class="fil1" d="M4749.42 2756.21c-359.53,98.7 -257.56,684.42 148.01,590.03 138.4,-32.19 244.58,-193.06 210.25,-372.98 -28.65,-150.18 -169.74,-268.8 -358.26,-217.05zm29.36 74.78c-159.26,82.75 -89.09,542.34 93.6,444.85 144.77,-77.24 99.84,-545.36 -93.6,-444.85z"/>
   <path class="fil1" d="M4478.56 3109.06c-53.42,3.64 -32.63,9.13 -73.56,56.12 -74.97,86.05 -171.46,128.17 -294.97,90.49 -280.36,-85.52 -263.87,-646.98 20.23,-688.4 264.1,-38.52 244.88,234.3 325.01,209.67 25.12,-57.25 10.73,-193.86 -4.78,-266.7 -78.56,4.78 -43.21,22.97 -134.39,-4.74 -46.1,-14.01 -88.22,-21.49 -140.35,-23.08 -104.65,-3.18 -191.06,28.05 -263.39,74.23 -284.01,181.32 -260.37,721.81 161.59,792.08 282.84,47.11 444.13,-143.05 404.63,-239.67z"/>
   <path class="fil1" d="M8642.24 2805.83c6.07,85.9 47.04,16.6 63.38,97.77l1.87 320.5c-2.93,34.03 -3.19,35.47 -22.97,53.89 -32.79,30.56 -27.14,-0.19 -48.22,49.97 43.6,31.32 259.82,15.89 290.22,9.01 -7.66,-111.62 -87.12,91.17 -64.29,-438.77 235.14,-174.18 205.8,156.34 201.77,303.55 -3.48,126.52 -46.27,41.91 -63.39,136.92l277.51 6c-7.71,-123.34 -62.11,37.95 -59.24,-212.86 1.55,-136.28 28.21,-370.35 -161.67,-384.86 -95.7,-7.32 -149.18,44.07 -192.05,82.31 -4.73,-78.97 5.14,-99.53 -78.58,-74.05 -50.21,15.28 -108.61,28.9 -144.33,50.64z"/>
   <path class="fil1" d="M5802.7 2808.65c13.85,75.32 48.25,15.4 63.29,95.55l2.28 318.66c-8.81,90.75 -50,29.89 -67.66,105.1 15.52,10.96 1.5,5.66 26.93,11.71l259.4 -11.71c-26.52,-91.62 -67.31,23.17 -65.25,-184.57 0.8,-80.42 -4.73,-162.69 4.91,-242.43 103.86,-98.82 198.27,-54.85 200.2,103.29 0.78,63.52 1.79,134.11 -0.01,197.2 -3.53,124.72 -59.33,48.66 -62.66,135.04 69.34,17.87 234.22,9.28 260.07,0.83l19.8 -9.36c-21.02,-59.47 -41.98,-26.91 -58.86,-73.71 -39.72,-110.16 87.27,-489.22 -166.67,-508.64 -99.81,-7.63 -143.19,41.07 -183.61,85.58 -22.9,-36.41 -3.26,-39.53 -24.45,-83.08 -55.15,-1.68 -173.05,32.02 -207.7,60.53z"/>
   <path class="fil1" d="M5124.58 2808.65c38.48,95.37 64.12,-13.21 62.62,172.91 -1.13,139.9 -30.37,351.99 142.46,372.04 116.31,13.49 156.48,-42.55 196.04,-61.9l23.08 59.5 175.08 -31.96c47.91,-20.53 22.9,9.83 36.72,-37.44 -59.24,-78.93 -76.32,77.31 -74.61,-230.8 0.5,-91.04 5.98,-210.07 -1.81,-297.96 -51.96,-9.8 -180.26,23.78 -224.38,46.42 18.8,41.78 31.34,39.57 65.29,61.99 8.31,90.68 14.73,274.21 -0.37,360.85 -238.8,101.42 -172.31,-127.06 -180.47,-476.23 -54.43,3.72 -188.33,26.5 -219.65,62.58z"/>
   <path class="fil1" d="M9485.64 3172.28c-21.13,20.36 24.41,12.05 -47.8,17.15l-0.03 -33.33c-40.9,16.75 -86.99,41.71 -90.6,92.3 -4.31,60.14 36.43,75.05 65.67,101.72 -113.55,46.74 -152.73,202.04 -5.68,263.19 110.58,46 287.87,25.27 378.59,-29.54 92.6,-55.94 239.32,-328.53 -140.91,-345.12 -55.19,-2.4 -153,-1.4 -159.24,-66.38zm267.07 231.02c-64.5,-35.9 -153.08,-44.76 -246.59,-39.34 -60.08,83.89 -67.59,173.1 60.86,191.75 122.88,17.81 214.28,-32.78 185.73,-152.41z"/>
   <path class="fil1" d="M7464.48 3155.02c-52.23,15.55 -94.23,123.4 -239.12,78.32 -74.04,-23.04 -114.94,-107.57 -115.34,-202.38 315,-23.55 392.28,53.21 362.01,-89.81 -9.68,-45.72 -25.61,-79.29 -51.41,-111.17 -160.13,-197.87 -528.9,-33.86 -460.58,309.75 37.97,191 246.42,258.54 388.01,188.11 42.35,-21.06 147.96,-108.95 116.43,-172.82zm-356.38 -184.42l223.55 -1.17c-27.07,-244.27 -210.79,-164.07 -223.55,1.17z"/>
   <path class="fil1" d="M9437.82 3156.1l0.03 33.33c72.21,-5.1 26.67,3.22 47.8,-17.15 133.24,-20.39 187.55,19.48 288.32,-73.39 84.49,-77.86 52.71,-163.29 23.29,-264.78 70.24,-13.77 100.77,0.16 96.76,-67.02 -47.57,-11.29 -69.83,-4.14 -116.51,1.8 -92.56,11.76 -210.33,-67.17 -346.48,20.77 -50.55,32.66 -96.56,95.82 -90.1,192.28 8.07,120.48 82.65,119.95 96.88,174.15zm124.57 -340.78c-117.02,32.48 -103.24,318.94 46.15,291.8 110.02,-20 95.26,-331.03 -46.15,-291.8z"/>
   <path class="fil1" d="M7478.31 2485.52c39.62,128.21 79.42,-125.3 78.99,346.21 -0.14,146.06 2.85,294.92 -1.53,440.53 -38.37,23.54 -51.44,15.89 -70.31,55.71 35.77,26.16 249.12,18.56 267.06,14.8l36.08 -14.8c-12.25,-53.55 -27.4,-31.53 -67.67,-69.5l-2.56 -839.49c-66.97,-13.07 -203.42,27.1 -240.06,66.54z"/>
   <path class="fil1" d="M7846.55 2485.52c46.37,133.55 78.52,-115.53 78.51,346.21 0,91.54 12.88,362.7 -7.05,428.5 -40.22,54.08 -61.66,3.63 -70.58,78.51l315.23 -10.77c-46.27,-147.04 -75.68,160.24 -75.51,-415.45 0.04,-146.43 12.01,-354.91 -3.01,-493.74 -60.08,-8.89 -199.08,31.58 -237.59,66.75z"/>
   <path class="fil1" d="M6500.54 3126c-21.14,47.46 -12.08,124.69 -0.76,171.5 69.19,93.01 410.12,88.23 412.93,-119.84 3.05,-225.46 -349.3,-184.1 -292.51,-320.79 13.26,-24.77 19.68,-37.25 63.76,-42.66 109.57,-13.48 98.62,112.27 168.88,130.47 10.81,-17.27 37.09,-147.94 -25.75,-179.39 -43.98,-22 -156.37,-21.41 -206.95,-5.08 -124.34,40.13 -171.17,198.73 -62.81,298.11 46.07,42.23 93.52,57.71 148.52,82.93 50.38,23.09 123.99,68.25 57.21,131.18 -49.56,46.68 -130.8,12.64 -165.51,-23.88 -34.1,-35.87 -59.73,-116.09 -97.01,-122.54z"/>
   <path class="fil1" d="M8251.14 2808.65c23.83,57.07 53.23,27.3 65.77,93.44l0.45 333.32c-13.48,86.63 -55.31,21.75 -64.54,100.85 57.25,13.43 244.61,22.46 284.11,-8.29 -25.27,-114.4 -66.3,80.84 -64.8,-253.89 0.49,-109.49 1.27,-220.06 -1.01,-329.42 -54.6,1.04 -185.44,35.49 -219.98,63.99z"/>
   <path class="fil1" d="M8345.17 2485.45c-43.36,27.15 -80.32,68.68 -38.21,137.88 23.48,38.57 82.14,63.11 134.53,32.62 102.65,-59.73 28.23,-248.51 -96.33,-170.5z"/>
  </g>
 </g>
</svg>
