<?xml version="1.0" encoding="UTF-8"?>
<!DOCTYPE svg PUBLIC "-//W3C//DTD SVG 1.1//EN" "http://www.w3.org/Graphics/SVG/1.1/DTD/svg11.dtd">
<!-- Creator: CorelDRAW (OEM Version) -->
<svg xmlns="http://www.w3.org/2000/svg" xml:space="preserve" width="145.182mm" height="53.3907mm" version="1.1" style="shape-rendering:geometricPrecision; text-rendering:geometricPrecision; image-rendering:optimizeQuality; fill-rule:evenodd; clip-rule:evenodd"
viewBox="0 0 1439.62 529.42"
 xmlns:xlink="http://www.w3.org/1999/xlink"
 xmlns:xodm="http://www.corel.com/coreldraw/odm/2003">
 <defs>
  <style type="text/css">
   <![CDATA[
    .fil1 {fill:#265966}
    .fil0 {fill:#F4BF3F}
   ]]>
  </style>
 </defs>
 <g id="Layer_x0020_1">
  <metadata id="CorelCorpID_0Corel-Layer"/>
  <g id="_2225007216128">
   <path class="fil0" d="M266.66 146.24c-42.51,7.45 -71.16,23.09 -93.21,46.61 -19.48,20.78 -41.65,53.87 -44.28,94.83 -3.56,55.48 1.98,20.1 89.16,50.11 35.89,12.35 63.57,26.79 102.5,36.96 22.15,5.78 100.08,15.98 115.96,-9.22 18.72,-29.72 14.56,-84.11 2.57,-116.13 -26.21,-70.01 -99.54,-115.97 -172.7,-103.15z"/>
   <path class="fil0" d="M0.01 361.56c9.74,6.53 20.21,3.23 33.27,3.11 12,-0.11 23.57,1.08 35.26,2.09 57.99,5 108.27,47.85 152.92,70.36 136.28,68.69 249.64,-22.39 244.23,-39.42 -2.85,-8.98 -22.37,-2.59 -29.97,-1.49 -73.11,10.64 -122.87,0.47 -190.79,-24.66 -55.31,-20.46 -56.45,-23.42 -119.31,-29.85 -23.37,-2.39 -47.02,-2.89 -70.87,-0.82 -22.89,1.99 -55.38,2 -54.74,20.67z"/>
   <path class="fil0" d="M280.23 20.78c0.01,22.44 -1.06,52.96 0.45,73.67 1.61,21.96 22.56,28.72 21.66,-8.18 -0.53,-21.51 -1.52,-42.23 -1.09,-63.85 0.2,-9.95 1.05,-21.55 -9.5,-22.37 -11.73,-0.92 -11.53,10.97 -11.53,20.73z"/>
   <path class="fil0" d="M58.49 105.58c2.52,11.59 10.85,15.28 17.58,21.9l40.93 39.59c8.53,8.76 13.77,14.67 25.15,4.79 1.06,-13.55 -9.45,-17.84 -15.76,-24.23 -5.84,-5.91 -14.24,-14.98 -20.85,-21.1 -7.62,-7.06 -26.88,-28.05 -33.82,-29.12 -9.22,-1.42 -9.1,2.86 -13.23,8.17z"/>
   <path class="fil0" d="M422.77 31.07c-17.52,-3.44 -18.26,10.09 -35.8,41.16 -4.58,8.12 -8.81,16.11 -13.49,25.21 -3.85,7.5 -12.4,19.73 -2.82,25.91 13.7,8.82 22.45,-17.29 34.28,-39.92 15.89,-30.41 26.02,-37.78 17.83,-52.36z"/>
   <path class="fil0" d="M505.51 99.98c-7.13,3.81 -55.52,50.78 -62.09,58.97 -9.13,11.38 0.61,23.62 11.19,17.96 5.64,-3.02 51.22,-49.64 60.82,-60.22 10.28,-11.33 -1.11,-21.41 -9.92,-16.7z"/>
   <path class="fil0" d="M160.58 30.89c-6.59,11.37 -4.17,13.26 3.16,25.62l27.63 49.64c3.9,7.02 10.42,20.17 18.59,17.28 17.35,-6.13 -9.28,-43.12 -13.56,-50.8 -4.33,-7.75 -9.11,-16.71 -13.62,-25.01 -5.68,-10.46 -7.4,-18.72 -22.19,-16.73z"/>
   <path class="fil0" d="M8.51 217.01c10.9,9 57.35,24.64 76,31.35 10.33,3.72 24.76,2.91 18.59,-11.72 -3.03,-7.19 -40.37,-19.11 -49.74,-22.67 -14.7,-5.58 -43.21,-23.19 -44.84,3.04z"/>
  </g>
  <g id="_2225007218288">
   <path class="fil1" d="M719.85 239.13c-8.71,-1.88 -57.08,-2.71 -63.47,1.62 0.11,13.45 11.55,3.02 15.45,19.4 2.25,9.44 2.11,26.32 0.37,34.99 -4.45,11.27 -45.59,18.88 -68.52,-8.58 -15.96,-19.12 -22.68,-49.5 -15.87,-80.68 13.03,-59.6 80.45,-58.87 99.24,-14.54 1.25,2.94 1.75,5.51 3.15,8.64 3.14,7.04 0.7,5.5 8,5.04 4.45,-5.53 3.89,-45.15 1.06,-52.59 -10.1,-0.59 -4.37,2.45 -11.58,3.59 -3.96,0.63 -8.89,-2.47 -13.56,-3.8 -32.28,-9.17 -62.38,-8.35 -89.1,10.56 -65.98,46.72 -34.69,165.05 67.9,155.62 14.38,-1.32 50,-7.58 52.59,-20.54 1.41,-7.06 -0.43,-27.66 0.12,-36.79 1.26,-20.82 12.99,-6.96 14.21,-21.95z"/>
   <path class="fil1" d="M800.25 153.43c4.44,13.94 14.64,-2.41 14.56,31.87 -0.03,15.68 0.11,31.37 0.01,47.05 -0.1,15.67 -0.05,31.36 -0.01,47.03 0.02,6.01 1.25,15.87 -1.83,20.7 -6.08,9.55 -10.21,-0.23 -11.5,13.84 8.16,1.15 49.86,2.42 55.84,-0.97 -0.7,-9.9 -5.51,-4.38 -11.51,-11.63 -4.3,-5.2 -2.7,-13.68 -2.65,-20.26 0.17,-26.55 1.84,-127.65 -1.23,-140.5 -8.11,-1.29 -37.74,6.06 -41.67,12.87z"/>
   <path class="fil1" d="M863.16 218.54l13.08 1.96 -0.07 43.76c0.05,21.8 -3.62,46.56 17.92,52.6 18.66,5.24 51.22,-8.13 44.68,-22.67l-1.94 -0.16c-15.69,2.49 -32,16.84 -32.06,-26.41l-0.09 -47.05c29,-2.35 32.11,4.31 29.22,-14.04 -8.36,-3.2 -19.04,-0.72 -28.15,-2.15 -3.6,-15.55 6.32,-44.27 -15.46,-16.68 -13.83,17.51 -26.73,23.51 -27.13,30.86z"/>
   <path class="fil1" d="M730.83 213.88c3.34,9.39 11.77,3.93 13.9,17.02l0.21 63.55c-0.62,4.72 -2.04,6.76 -5.76,8.97 -9.06,5.38 -8.03,-0.77 -8.38,10.56l58.54 0.34c-2.06,-13.71 -11.84,-5.35 -14.97,-18.61 -2.7,-11.43 2.18,-74.09 -1.4,-94.55 -9.26,-1.89 -38.37,6.1 -42.15,12.72z"/>
   <path class="fil1" d="M755.25 149.2c-22.57,3.72 -18.66,38.8 6.47,34.42 19.55,-3.41 18.77,-38.58 -6.47,-34.42z"/>
  </g>
  <path class="fil1" d="M691.03 401.03c-52.31,14.36 -37.47,99.58 21.54,85.85 20.14,-4.68 35.59,-28.09 30.59,-54.27 -4.17,-21.85 -24.7,-39.11 -52.13,-31.58zm4.27 10.88c-23.17,12.04 -12.96,78.91 13.62,64.73 21.06,-11.24 14.53,-79.35 -13.62,-64.73z"/>
  <path class="fil1" d="M651.62 452.36c-7.77,0.53 -4.75,1.33 -10.7,8.16 -10.91,12.52 -24.95,18.65 -42.92,13.17 -40.79,-12.44 -38.39,-94.13 2.94,-100.16 38.43,-5.6 35.63,34.09 47.29,30.51 3.66,-8.33 1.56,-28.21 -0.7,-38.8 -11.43,0.7 -6.29,3.34 -19.55,-0.69 -6.71,-2.04 -12.84,-3.13 -20.42,-3.36 -15.23,-0.46 -27.8,4.08 -38.32,10.8 -41.32,26.38 -37.88,105.02 23.51,115.25 41.15,6.85 64.62,-20.81 58.87,-34.87z"/>
  <path class="fil1" d="M1257.43 408.24c0.88,12.5 6.84,2.42 9.22,14.23l0.27 46.63c-0.43,4.95 -0.46,5.16 -3.34,7.84 -4.77,4.45 -3.95,-0.03 -7.02,7.27 6.34,4.56 37.8,2.31 42.23,1.31 -1.11,-16.24 -12.68,13.27 -9.35,-63.84 34.21,-25.34 29.94,22.75 29.36,44.17 -0.51,18.41 -6.73,6.1 -9.22,19.92l40.38 0.87c-1.12,-17.95 -9.04,5.52 -8.62,-30.97 0.23,-19.83 4.11,-53.89 -23.52,-56 -13.92,-1.06 -21.71,6.41 -27.94,11.98 -0.69,-11.49 0.75,-14.48 -11.43,-10.77 -7.31,2.22 -15.8,4.2 -21,7.37z"/>
  <path class="fil1" d="M844.28 408.65c2.01,10.96 7.02,2.24 9.21,13.9l0.33 46.36c-1.28,13.2 -7.27,4.35 -9.84,15.29 2.26,1.59 0.22,0.82 3.92,1.7l37.74 -1.7c-3.86,-13.33 -9.79,3.37 -9.49,-26.85 0.12,-11.7 -0.69,-23.67 0.71,-35.27 15.11,-14.38 28.85,-7.98 29.13,15.03 0.11,9.24 0.26,19.51 -0,28.69 -0.51,18.15 -8.63,7.08 -9.12,19.65 10.09,2.6 34.08,1.35 37.84,0.12l2.88 -1.36c-3.06,-8.65 -6.11,-3.91 -8.56,-10.73 -5.78,-16.03 12.7,-71.18 -24.25,-74.01 -14.52,-1.11 -20.83,5.98 -26.72,12.45 -3.33,-5.3 -0.47,-5.75 -3.56,-12.09 -8.02,-0.24 -25.18,4.66 -30.22,8.81z"/>
  <path class="fil1" d="M745.62 408.65c5.6,13.88 9.33,-1.92 9.11,25.16 -0.16,20.36 -4.42,51.21 20.73,54.13 16.92,1.96 22.77,-6.19 28.52,-9.01l3.36 8.66 25.47 -4.65c6.97,-2.99 3.33,1.43 5.34,-5.45 -8.62,-11.48 -11.1,11.25 -10.86,-33.58 0.07,-13.25 0.87,-30.56 -0.26,-43.35 -7.56,-1.43 -26.23,3.46 -32.65,6.75 2.73,6.08 4.56,5.76 9.5,9.02 1.21,13.19 2.14,39.9 -0.05,52.5 -34.75,14.76 -25.07,-18.49 -26.26,-69.29 -7.92,0.54 -27.4,3.86 -31.96,9.1z"/>
  <path class="fil1" d="M1380.15 461.56c-3.07,2.96 3.55,1.75 -6.96,2.49l-0 -4.85c-5.95,2.44 -12.66,6.07 -13.18,13.43 -0.63,8.75 5.3,10.92 9.55,14.8 -16.52,6.8 -22.22,29.4 -0.83,38.29 16.09,6.69 41.88,3.68 55.08,-4.3 13.47,-8.14 34.82,-47.8 -20.5,-50.21 -8.03,-0.35 -22.26,-0.2 -23.17,-9.66zm38.86 33.61c-9.38,-5.22 -22.27,-6.51 -35.88,-5.72 -8.74,12.21 -9.83,25.19 8.85,27.9 17.88,2.59 31.18,-4.77 27.02,-22.18z"/>
  <path class="fil1" d="M1086.07 459.05c-7.6,2.26 -13.71,17.95 -34.79,11.4 -10.77,-3.35 -16.72,-15.65 -16.78,-29.45 45.83,-3.43 57.08,7.74 52.67,-13.07 -1.41,-6.65 -3.73,-11.54 -7.48,-16.17 -23.3,-28.79 -76.95,-4.93 -67.01,45.07 5.53,27.79 35.85,37.62 56.46,27.37 6.16,-3.06 21.53,-15.85 16.94,-25.14zm-51.85 -26.83l32.53 -0.17c-3.94,-35.54 -30.67,-23.87 -32.53,0.17z"/>
  <path class="fil1" d="M1373.19 459.21l0 4.85c10.51,-0.74 3.88,0.47 6.96,-2.49 19.39,-2.97 27.29,2.83 41.95,-10.68 12.29,-11.33 7.67,-23.76 3.39,-38.53 10.22,-2 14.66,0.02 14.08,-9.75 -6.92,-1.64 -10.16,-0.6 -16.95,0.26 -13.47,1.71 -30.6,-9.77 -50.41,3.02 -7.36,4.75 -14.05,13.94 -13.11,27.98 1.17,17.53 12.03,17.45 14.1,25.34zm18.12 -49.58c-17.03,4.73 -15.02,46.4 6.72,42.46 16.01,-2.91 13.86,-48.16 -6.72,-42.46z"/>
  <path class="fil1" d="M1088.08 361.64c5.77,18.65 11.56,-18.23 11.49,50.37 -0.02,21.25 0.41,42.91 -0.22,64.1 -5.58,3.42 -7.48,2.31 -10.23,8.11 5.2,3.81 36.25,2.7 38.86,2.15l5.25 -2.15c-1.78,-7.79 -3.99,-4.59 -9.85,-10.11l-0.37 -122.14c-9.74,-1.9 -29.6,3.94 -34.93,9.68z"/>
  <path class="fil1" d="M1141.66 361.64c6.75,19.43 11.43,-16.81 11.42,50.37 0,13.32 1.87,52.77 -1.03,62.35 -5.85,7.87 -8.97,0.53 -10.27,11.42l45.87 -1.57c-6.73,-21.39 -11.01,23.31 -10.99,-60.45 0.01,-21.31 1.75,-51.64 -0.44,-71.84 -8.74,-1.29 -28.97,4.6 -34.57,9.71z"/>
  <path class="fil1" d="M945.82 454.83c-3.08,6.91 -1.76,18.14 -0.11,24.95 10.07,13.53 59.67,12.84 60.08,-17.44 0.44,-32.8 -50.82,-26.79 -42.56,-46.67 1.93,-3.6 2.86,-5.42 9.28,-6.21 15.94,-1.96 14.35,16.34 24.57,18.98 1.57,-2.51 5.4,-21.53 -3.75,-26.1 -6.4,-3.2 -22.75,-3.12 -30.11,-0.74 -18.09,5.84 -24.9,28.91 -9.14,43.37 6.7,6.14 13.61,8.4 21.61,12.07 7.33,3.36 18.04,9.93 8.32,19.09 -7.21,6.79 -19.03,1.84 -24.08,-3.47 -4.96,-5.22 -8.69,-16.89 -14.11,-17.83z"/>
  <path class="fil1" d="M1200.53 408.65c3.47,8.3 7.74,3.97 9.57,13.59l0.07 48.5c-1.96,12.61 -8.05,3.17 -9.39,14.67 8.33,1.95 35.59,3.27 41.34,-1.21 -3.68,-16.64 -9.65,11.76 -9.43,-36.94 0.07,-15.93 0.18,-32.02 -0.15,-47.93 -7.94,0.15 -26.98,5.16 -32.01,9.31z"/>
  <path class="fil1" d="M1214.21 361.63c-6.31,3.95 -11.69,9.99 -5.56,20.06 3.42,5.61 11.95,9.18 19.57,4.75 14.94,-8.69 4.11,-36.16 -14.02,-24.81z"/>
 </g>
</svg>
